<svg xmlns="http://www.w3.org/2000/svg" xmlns:xlink="http://www.w3.org/1999/xlink" id="Capa_1" x="0" y="0" version="1.1" viewBox="0 0 512 512" xml:space="preserve" style="enable-background:new 0 0 512 512"><polygon style="fill:#82d2ff" points="256 0 34.297 128 34.297 384 256 512 477.703 384 477.703 128"/><polygon style="fill:#08b7fc" points="256 256 256 0 34.297 128"/><path style="fill:#82d2ff" d="M256,256L256,256L256,256z"/><polygon style="fill:#006dff" points="34.297 128 34.297 384 256 256"/><polygon style="fill:#08b7fc" points="477.703 128 477.703 128 256 256 256 256 477.703 384 477.703 384"/><polygon style="fill:#0050c0" points="256 256 34.297 384 256 512"/><polygon style="fill:#006dff" points="256 512 477.703 384 256 256"/><polygon style="fill:#82d2ff" points="381.121 328.238 381.121 183.762 256 111.523 130.879 183.762 130.879 328.238 256 400.477"/><polygon style="fill:#55cbff" points="381.121 328.238 381.121 183.762 256 111.523 256 400.477"/></svg>